<svg width="16" height="16" viewBox="0 0 16 16" fill="none" xmlns="http://www.w3.org/2000/svg">
<path d="M9.11413 7.87725L15.4941 1.49725C15.8371 1.15425 15.8371 0.60025 15.4941 0.25925C15.1541 -0.0827501 14.5991 -0.0827501 14.2581 0.25925L7.87613 6.63725L1.49613 0.25725C1.15313 -0.08575 0.599126 -0.08575 0.256126 0.25725C-0.0868738 0.60025 -0.0838738 1.15225 0.256126 1.49425L6.63913 7.87725L0.259126 14.2572C-0.083874 14.6002 -0.0838738 15.1543 0.257126 15.4973C0.599126 15.8373 1.15313 15.8373 1.49513 15.4973L7.87613 9.11425L14.2561 15.4943C14.5991 15.8373 15.1531 15.8363 15.4941 15.4943C15.8361 15.1523 15.8341 14.5982 15.4941 14.2572L9.11413 7.87725Z" fill="#434D61"/>
</svg>
